<svg width="24" height="44" viewBox="0 0 24 44" fill="none" xmlns="http://www.w3.org/2000/svg">
<g clip-path="url(#clip0_104_15)">
<path d="M8 2L4 2C2.93913 2 1.92172 2.42143 1.17157 3.17157C0.421426 3.92172 -1.7074e-06 4.93913 -1.66103e-06 6L-1.74846e-07 40C-1.28474e-07 41.0609 0.421427 42.0783 1.17157 42.8284C1.92172 43.5786 2.93913 44 4 44L20 44C21.0609 44 22.0783 43.5786 22.8284 42.8284C23.5786 42.0783 24 41.0609 24 40L24 6C24 4.93913 23.5786 3.92172 22.8284 3.17157C22.0783 2.42143 21.0609 2 20 2L16 2C16 1.46957 15.7893 0.960857 15.4142 0.585784C15.0391 0.210712 14.5304 -6.35145e-07 14 -6.11959e-07L10 -4.37114e-07C9.46957 -4.13928e-07 8.96086 0.210712 8.58578 0.585785C8.21071 0.960857 8 1.46957 8 2ZM10 4L20 4C20.5304 4 21.0391 4.21071 21.4142 4.58578C21.7893 4.96086 22 5.46957 22 6L22 40C22 40.5304 21.7893 41.0391 21.4142 41.4142C21.0391 41.7893 20.5304 42 20 42L4 42C3.46957 42 2.96086 41.7893 2.58579 41.4142C2.21071 41.0391 2 40.5304 2 40L2 6C2 5.46957 2.21071 4.96086 2.58578 4.58578C2.96086 4.21071 3.46957 4 4 4L10 4Z" fill="black"/>
<path d="M15.8829 15.4472C15.9927 15.6127 16.0507 15.8072 16.0495 16.0058C16.049 16.1381 16.0222 16.269 15.9707 16.3909C15.9192 16.5128 15.844 16.6232 15.7495 16.7158L11.4595 21.0058H15.0495C15.2461 21.0066 15.4381 21.0654 15.6015 21.1747C15.7649 21.284 15.8924 21.439 15.9682 21.6204C16.0439 21.8018 16.0645 22.0015 16.0274 22.1946C15.9903 22.3876 15.8971 22.5654 15.7595 22.7058L9.75954 28.7058C9.6699 28.8105 9.55958 28.8955 9.43551 28.9555C9.31145 29.0156 9.17632 29.0493 9.0386 29.0546C8.90088 29.0599 8.76355 29.0367 8.63522 28.9865C8.50689 28.9362 8.39035 28.8599 8.29289 28.7625C8.19544 28.665 8.11918 28.5485 8.06891 28.4201C8.01863 28.2918 7.99543 28.1545 8.00075 28.0168C8.00606 27.879 8.03979 27.7439 8.09982 27.6198C8.15984 27.4958 8.24486 27.3855 8.34954 27.2958L12.6395 23.0058H9.04954C8.85092 23.007 8.65645 22.949 8.49093 22.8392C8.32541 22.7293 8.19634 22.5727 8.12017 22.3893C8.04401 22.2059 8.02419 22.0039 8.06326 21.8091C8.10233 21.6144 8.19852 21.4357 8.33954 21.2958L14.3395 15.2958C14.4794 15.1548 14.6581 15.0586 14.8529 15.0195C15.0476 14.9805 15.2496 15.0003 15.433 15.0764C15.6165 15.1526 15.7731 15.2817 15.8829 15.4472Z" fill="#111216"/>
</g>
<defs>
<clipPath id="clip0_104_15">
<rect width="44" height="24" fill="white" transform="translate(0 44) rotate(-90)"/>
</clipPath>
</defs>
</svg>
