<svg width="24" height="44" viewBox="0 0 24 44" fill="none" xmlns="http://www.w3.org/2000/svg">
<g clip-path="url(#clip0_104_10)">
<path d="M8 2L4 2C2.93913 2 1.92172 2.42143 1.17157 3.17157C0.421426 3.92172 -1.7074e-06 4.93913 -1.66103e-06 6L-1.74846e-07 40C-1.28474e-07 41.0609 0.421427 42.0783 1.17157 42.8284C1.92172 43.5786 2.93913 44 4 44L20 44C21.0609 44 22.0783 43.5786 22.8284 42.8284C23.5786 42.0783 24 41.0609 24 40L24 6C24 4.93913 23.5786 3.92172 22.8284 3.17157C22.0783 2.42143 21.0609 2 20 2L16 2C16 1.46957 15.7893 0.960857 15.4142 0.585784C15.0391 0.210712 14.5304 -6.35145e-07 14 -6.11959e-07L10 -4.37114e-07C9.46957 -4.13928e-07 8.96086 0.210712 8.58578 0.585785C8.21071 0.960857 8 1.46957 8 2ZM10 4L20 4C20.5304 4 21.0391 4.21071 21.4142 4.58578C21.7893 4.96086 22 5.46957 22 6L22 40C22 40.5304 21.7893 41.0391 21.4142 41.4142C21.0391 41.7893 20.5304 42 20 42L4 42C3.46957 42 2.96086 41.7893 2.58579 41.4142C2.21071 41.0391 2 40.5304 2 40L2 6C2 5.46957 2.21071 4.96086 2.58578 4.58578C2.96086 4.21071 3.46957 4 4 4L10 4Z" fill="black"/>
</g>
<defs>
<clipPath id="clip0_104_10">
<rect width="44" height="24" fill="white" transform="translate(0 44) rotate(-90)"/>
</clipPath>
</defs>
</svg>
